<svg width="200" height="84" viewBox="0 0 200 84" fill="none" xmlns="http://www.w3.org/2000/svg">
<g clip-path="url(#clip0_352_1208)">
<path d="M103.256 27.8225L112.771 27.1269C112.988 28.8863 113.386 30.1956 114.038 31.1366C115.087 32.6096 116.534 33.3461 118.452 33.3461C119.863 33.3461 120.984 32.9778 121.744 32.2004C122.467 31.5867 122.902 30.6047 122.902 29.5818C122.902 28.5999 122.504 27.6588 121.816 27.0451C121.093 26.3086 119.392 25.5721 116.715 24.9174C112.337 23.8127 109.19 22.3397 107.344 20.4576C105.499 18.6982 104.45 16.1206 104.522 13.3792C104.522 11.4971 105.029 9.61495 105.97 8.06016C107.055 6.30078 108.538 4.90964 110.311 4.13225C112.229 3.19118 114.906 2.7002 118.271 2.7002C122.395 2.7002 125.543 3.55943 127.713 5.3188C129.884 7.03726 131.187 9.81953 131.585 13.6247L122.178 14.2384C121.925 12.6018 121.418 11.4152 120.586 10.6378C119.754 9.86045 118.669 9.49221 117.258 9.49221C116.1 9.49221 115.232 9.77862 114.653 10.3105C114.11 10.8015 113.748 11.538 113.784 12.3563C113.784 12.97 114.074 13.5429 114.508 13.9111C114.978 14.4021 116.1 14.8522 117.873 15.2613C122.25 16.3251 125.362 17.3889 127.279 18.4937C129.197 19.5984 130.572 20.9486 131.404 22.5443C132.272 24.181 132.706 26.0631 132.67 27.9861C132.67 30.2774 132.091 32.5687 130.933 34.4917C129.74 36.4966 128.075 38.0514 126.122 38.9925C124.059 40.0153 121.454 40.5472 118.343 40.5472C112.844 40.5472 109.045 39.3607 106.91 36.9467C104.776 34.5326 103.509 31.5049 103.256 27.8225ZM2.27931 39.9335V3.35485H18.958C22.0333 3.35485 24.4211 3.64126 26.0492 4.25499C27.6411 4.82781 29.0521 6.01437 29.9928 7.61008C31.042 9.36946 31.5485 11.4152 31.5123 13.5429C31.6208 17.1434 29.9928 20.5804 27.2069 22.3807C26.1216 23.0762 24.9276 23.5672 23.6975 23.8127C24.602 24.0991 25.5065 24.5901 26.3025 25.1629C26.9175 25.7358 27.424 26.3904 27.8944 27.086C28.437 27.7815 28.9074 28.5589 29.3054 29.3773L34.1534 39.9744H22.7931L17.4385 28.7226C16.7511 27.2905 16.1722 26.3495 15.6295 25.8994C14.9059 25.3266 14.0376 25.0402 13.1693 25.0402H12.301V39.8926H2.27931V39.9335ZM12.301 18.1663H16.534C17.4385 18.0845 18.3068 17.9208 19.1751 17.6754C19.8263 17.5526 20.4052 17.1434 20.8032 16.5297C21.78 15.0567 21.6353 12.97 20.4414 11.7017C19.7902 11.0879 18.5239 10.7606 16.7149 10.7606H12.301V18.1663ZM0 71.275L9.51519 70.5794C9.73227 72.3388 10.1302 73.6481 10.7815 74.5891C11.7945 76.0621 13.2779 76.8395 15.1954 76.8395C16.6064 76.8395 17.7279 76.4713 18.4877 75.6939C19.2113 75.0392 19.6454 74.0981 19.6454 73.0752C19.6454 72.0933 19.2475 71.1522 18.5601 70.5385C17.8365 69.802 16.136 69.0655 13.4226 68.4109C9.04486 67.3061 5.89725 65.8332 4.0521 63.951C2.20695 62.1917 1.15774 59.614 1.2301 56.8726C1.2301 54.9905 1.73661 53.1084 2.67728 51.5536C3.76266 49.7942 5.24602 48.4031 7.01881 47.6257C8.93632 46.6846 11.6136 46.1936 14.9783 46.1936C19.1028 46.1936 22.2504 47.0528 24.4211 48.8122C26.5919 50.5716 27.8582 53.313 28.2561 57.1181L18.8495 57.7319C18.5962 56.0952 18.0897 54.9087 17.2576 54.1313C16.4617 53.3539 15.3401 52.9856 13.9291 53.0265C12.7713 53.0265 11.903 53.313 11.3242 53.8858C10.7453 54.3768 10.4197 55.1132 10.4559 55.9316C10.4559 56.5453 10.7453 57.1181 11.1795 57.4864C11.6498 57.9773 12.7713 58.4274 14.5441 58.8366C18.9219 59.9004 22.0333 60.9642 23.9508 62.0689C25.8683 63.1736 27.2431 64.5239 28.0753 66.1196C28.9436 67.7562 29.3777 69.6383 29.3777 71.5205C29.3777 73.8117 28.7627 76.0621 27.6411 77.9851C26.4472 79.99 24.7829 81.5448 22.8292 82.4859C20.767 83.5088 18.1621 84.0407 15.0507 84.0407C9.55137 84.0407 5.75253 82.8541 3.61794 80.4401C1.48336 77.9851 0.289436 74.9574 0 71.275Z" fill="black"/>
<path d="M48.1187 68.4116L56.8741 71.3984C56.4038 73.8943 55.4269 76.2674 54.0883 78.3541C52.8582 80.1953 51.2301 81.6274 49.3849 82.5684C47.5036 83.5095 45.1158 84.0005 42.2214 84.0005C38.712 84.0005 35.8177 83.4277 33.6107 82.282C31.3676 81.1364 29.4501 79.0906 27.822 76.1856C26.1939 73.2805 25.398 69.5572 25.398 65.0156C25.398 58.96 26.809 54.2957 29.6671 51.0633C32.5253 47.831 36.5412 46.1943 41.7511 46.1943C45.8394 46.1943 49.0232 47.1354 51.3748 48.9766C53.6903 50.8587 55.4269 53.7228 56.5847 57.5689L47.7569 59.7784C47.5398 58.9191 47.2142 58.0599 46.78 57.3234C46.2373 56.4642 45.5499 55.8095 44.7178 55.3185C43.8857 54.8276 42.945 54.623 42.0043 54.623C39.725 54.623 37.9884 55.6459 36.7945 57.7326C35.89 59.2465 35.4197 61.6605 35.4197 64.9337C35.4197 68.9844 35.9624 71.7667 37.0478 73.2806C38.1331 74.7944 39.6527 75.5309 41.6425 75.5309C43.5601 75.5309 45.0072 74.9172 45.9841 73.7306C46.9609 72.4622 47.6845 70.7029 48.1187 68.4116ZM68.5601 46.8081H78.5456V59.6147H89.4718V46.8081H99.5297V83.3867H89.4718V68.5752H78.5456V83.3867H68.5601V46.8081Z" fill="black"/>
<path d="M98.1548 65.0973C98.1548 59.1236 99.6382 54.4592 102.569 51.145C105.499 47.8309 109.624 46.1533 114.87 46.1533C120.26 46.1533 124.385 47.7899 127.315 51.0632C130.246 54.3365 131.693 58.919 131.693 64.8109C131.693 69.107 131.042 72.5849 129.776 75.3262C128.546 78.0267 126.628 80.2361 124.276 81.7091C121.852 83.223 118.849 84.0004 115.268 84.0004C111.614 84.0004 108.611 83.3457 106.223 82.0364C103.763 80.6453 101.737 78.4767 100.398 75.8172C98.9146 72.9531 98.1548 69.3935 98.1548 65.0973ZM108.14 65.1382C108.14 68.8206 108.755 71.4802 109.949 73.1168C111.143 74.7125 112.808 75.5308 114.906 75.5308C117.041 75.5308 118.705 74.7534 119.899 73.1577C121.093 71.562 121.671 68.7388 121.671 64.6472C121.671 61.2103 121.056 58.6735 119.826 57.1187C118.596 55.523 116.932 54.7456 114.834 54.7456C112.988 54.6638 111.216 55.5639 109.986 57.1596C108.755 58.7554 108.14 61.4149 108.14 65.1382ZM141.932 65.0973C141.932 59.1236 143.415 54.4592 146.346 51.145C149.276 47.8309 153.401 46.1533 158.647 46.1533C164.038 46.1533 168.198 47.7899 171.093 51.0632C173.987 54.3365 175.47 58.919 175.47 64.8109C175.47 69.107 174.819 72.5849 173.553 75.3262C172.323 78.0267 170.405 80.2361 168.054 81.7091C165.63 83.223 162.627 84.0004 159.045 84.0004C155.391 84.0004 152.388 83.3457 150 82.0364C147.54 80.6453 145.514 78.4767 144.175 75.8172C142.692 72.9531 141.932 69.3935 141.932 65.0973ZM151.918 65.1382C151.918 68.8206 152.533 71.4802 153.726 73.1168C154.92 74.7125 156.585 75.5308 158.683 75.5308C160.818 75.5308 162.482 74.7534 163.676 73.1577C164.87 71.562 165.449 68.7388 165.449 64.6472C165.449 61.2103 164.834 58.6735 163.603 57.1187C162.373 55.523 160.709 54.7456 158.611 54.7456C156.766 54.6638 154.957 55.5639 153.763 57.1596C152.533 58.7554 151.918 61.4149 151.918 65.1382Z" fill="black"/>
<path d="M174.421 46.8076H184.407V74.3848H200V83.3863H174.385V46.8076H174.421Z" fill="black"/>
<path d="M163.415 44.6968C173.468 36.1291 176.568 21.6053 170.339 12.2572C164.11 2.90902 150.91 2.27638 140.857 10.8441C130.804 19.4119 127.704 33.9356 133.933 43.2838C140.162 52.6319 153.362 53.2646 163.415 44.6968Z" fill="white"/>
<mask id="mask0_352_1208" style="mask-type:luminance" maskUnits="userSpaceOnUse" x="130" y="4" width="44" height="47">
<path d="M163.415 44.6968C173.468 36.1291 176.568 21.6053 170.339 12.2572C164.11 2.90902 150.91 2.27638 140.857 10.8441C130.804 19.4119 127.704 33.9356 133.933 43.2838C140.162 52.6319 153.362 53.2646 163.415 44.6968Z" fill="white"/>
</mask>
<g mask="url(#mask0_352_1208)">
<path d="M108.294 23.1348L160.245 -21.1397L196.194 32.8089L144.243 77.0834L108.294 23.1348Z" fill="white"/>
<mask id="mask1_352_1208" style="mask-type:luminance" maskUnits="userSpaceOnUse" x="108" y="-22" width="89" height="100">
<path d="M108.294 23.1348L160.245 -21.1397L196.194 32.8089L144.243 77.0834L108.294 23.1348Z" fill="white"/>
</mask>
<g mask="url(#mask1_352_1208)">
<path d="M163.415 44.6968C173.468 36.1291 176.568 21.6053 170.339 12.2572C164.11 2.90902 150.91 2.27638 140.857 10.8441C130.804 19.4119 127.704 33.9356 133.933 43.2838C140.162 52.6319 153.362 53.2646 163.415 44.6968Z" fill="white"/>
<mask id="mask2_352_1208" style="mask-type:luminance" maskUnits="userSpaceOnUse" x="130" y="4" width="44" height="47">
<path d="M163.415 44.6968C173.468 36.1291 176.568 21.6053 170.339 12.2572C164.11 2.90902 150.91 2.27638 140.857 10.8441C130.804 19.4119 127.704 33.9356 133.933 43.2838C140.162 52.6319 153.362 53.2646 163.415 44.6968Z" fill="white"/>
</mask>
<g mask="url(#mask2_352_1208)">
<path d="M122.761 26.7373L159.138 -4.26394L181.717 29.6219L145.34 60.6231L122.761 26.7373Z" fill="white"/>
<mask id="mask3_352_1208" style="mask-type:luminance" maskUnits="userSpaceOnUse" x="122" y="-5" width="60" height="66">
<path d="M122.761 26.7373L159.138 -4.26394L181.717 29.6219L145.34 60.6231L122.761 26.7373Z" fill="white"/>
</mask>
<g mask="url(#mask3_352_1208)">
<path d="M163.415 44.6978C173.468 36.13 176.568 21.6063 170.339 12.2582C164.11 2.91 150.91 2.27735 140.857 10.8451C130.804 19.4129 127.704 33.9366 133.933 43.2847C140.162 52.6329 153.362 53.2655 163.415 44.6978Z" fill="white" stroke="black" stroke-width="4" stroke-miterlimit="10"/>
</g>
<mask id="mask4_352_1208" style="mask-type:luminance" maskUnits="userSpaceOnUse" x="127" y="-3" width="50" height="62">
<path d="M127.945 47.7334L141.046 -2.42988L176.565 8.61942L163.463 58.7827L127.945 47.7334Z" fill="white"/>
</mask>
<g mask="url(#mask4_352_1208)">
<path d="M122.761 27.2891L159.602 -4.2646L181.717 29.0688L144.876 60.6224L122.761 27.2891Z" stroke="black" stroke-width="4" stroke-miterlimit="10"/>
</g>
<path d="M163.415 44.6978C173.468 36.13 176.568 21.6063 170.339 12.2582C164.11 2.91 150.91 2.27735 140.857 10.8451C130.804 19.4129 127.704 33.9366 133.933 43.2847C140.162 52.6329 153.362 53.2655 163.415 44.6978Z" stroke="black" stroke-width="4" stroke-miterlimit="10"/>
<path d="M122.761 26.7373L159.138 -4.26394L181.717 29.6219L145.34 60.6231L122.761 26.7373Z" fill="white"/>
<mask id="mask5_352_1208" style="mask-type:luminance" maskUnits="userSpaceOnUse" x="122" y="-5" width="60" height="66">
<path d="M122.761 26.7373L159.138 -4.26394L181.717 29.6219L145.34 60.6231L122.761 26.7373Z" fill="white"/>
</mask>
<g mask="url(#mask5_352_1208)">
<path d="M163.415 44.6978C173.468 36.13 176.568 21.6063 170.339 12.2582C164.11 2.91 150.91 2.27735 140.857 10.8451C130.804 19.4129 127.704 33.9366 133.933 43.2847C140.162 52.6329 153.362 53.2655 163.415 44.6978Z" fill="white" stroke="black" stroke-width="4" stroke-miterlimit="10"/>
</g>
<mask id="mask6_352_1208" style="mask-type:luminance" maskUnits="userSpaceOnUse" x="127" y="-3" width="50" height="62">
<path d="M127.945 47.7334L141.046 -2.42988L176.565 8.61942L163.463 58.7827L127.945 47.7334Z" fill="white"/>
</mask>
<g mask="url(#mask6_352_1208)">
<path d="M122.761 27.2891L159.602 -4.2646L181.717 29.0688L144.876 60.6224L122.761 27.2891Z" stroke="black" stroke-width="4" stroke-miterlimit="10"/>
</g>
<path d="M108.294 23.1348L160.245 -21.1397L196.194 32.8089L144.243 77.0834L108.294 23.1348Z" stroke="black" stroke-width="4" stroke-miterlimit="10"/>
</g>
<path d="M163.415 44.6968C173.468 36.1291 176.568 21.6053 170.339 12.2572C164.11 2.90902 150.91 2.27638 140.857 10.8441C130.804 19.4119 127.704 33.9356 133.933 43.2838C140.162 52.6319 153.362 53.2646 163.415 44.6968Z" stroke="black" stroke-width="4" stroke-miterlimit="10"/>
<path d="M141.968 25.0816L145.586 22.2175L150.036 29.3778C150.796 30.5234 151.375 31.7509 151.809 33.1011C152.062 34.124 151.99 35.2288 151.628 36.2107C151.158 37.4382 150.398 38.4611 149.385 39.1976C148.191 40.1386 147.178 40.6705 146.31 40.8342C145.478 40.9979 144.609 40.8342 143.813 40.4251C142.945 39.9341 142.185 39.2385 141.606 38.3383L144.718 35.0651C144.971 35.5152 145.297 35.9243 145.658 36.2516C145.912 36.4562 146.201 36.579 146.527 36.579C146.78 36.579 147.033 36.4562 147.214 36.2926C147.576 36.0471 147.829 35.5561 147.793 35.0651C147.685 34.3695 147.431 33.674 147.033 33.142L141.968 25.0816ZM152.822 29.6233L156.114 26.6774C156.476 27.1684 156.946 27.5366 157.453 27.7412C158.177 27.9867 158.936 27.823 159.551 27.2911C159.986 26.9638 160.347 26.5137 160.492 25.9409C160.709 25.2044 160.347 24.3861 159.696 24.1406C159.588 24.0997 159.479 24.0588 159.37 24.0588C158.936 24.0178 158.177 24.2224 157.055 24.7543C155.21 25.6136 153.763 25.9409 152.677 25.8181C151.628 25.6954 150.651 25.0816 150.072 24.0588C149.638 23.3632 149.421 22.5449 149.385 21.7266C149.385 20.7855 149.602 19.8444 150.072 19.067C150.76 17.9623 151.592 17.0213 152.605 16.2848C154.124 15.0982 155.463 14.5254 156.621 14.5254C157.779 14.5254 158.864 15.1391 159.877 16.4075L156.621 19.3125C155.97 18.3715 154.74 18.1669 153.907 18.9034L153.799 19.0261C153.437 19.2716 153.184 19.6399 153.039 20.0899C152.931 20.4173 153.003 20.7855 153.184 21.0719C153.329 21.2765 153.546 21.4402 153.799 21.4402C154.088 21.4811 154.595 21.3174 155.318 20.9492C157.127 20.0899 158.502 19.5989 159.443 19.4353C160.239 19.2716 161.071 19.3534 161.831 19.7217C162.518 20.049 163.097 20.6218 163.495 21.3174C164.001 22.1357 164.291 23.1177 164.327 24.1406C164.363 25.2044 164.11 26.2273 163.603 27.1274C162.952 28.2322 162.12 29.1732 161.143 29.9097C159.153 31.4645 157.525 32.1192 156.223 31.8737C154.812 31.6282 153.654 30.8099 152.822 29.6233Z" fill="black"/>
</g>
</g>
</g>
<defs>
<clipPath id="clip0_352_1208">
<rect width="200" height="84" fill="white"/>
</clipPath>
</defs>
</svg>
