<svg version="1.1" xmlns="http://www.w3.org/2000/svg" viewBox="0 0 1263.5213943586082 586.4290766589279" width="1263.5213943586082" height="586.4290766589279">
  <!-- svg-source:excalidraw -->
  
  <defs>
    <style class="style-fonts">
      @font-face {
        font-family: "Virgil";
        src: url("https://excalidraw.com/Virgil.woff2");
      }
      @font-face {
        font-family: "Cascadia";
        src: url("https://excalidraw.com/Cascadia.woff2");
      }
      @font-face {
        font-family: "Assistant";
        src: url("https://excalidraw.com/Assistant-Regular.woff2");
      }
    </style>
    
  </defs>
  <rect x="0" y="0" width="1263.5213943586082" height="586.4290766589279" fill="#ffffff"></rect><g stroke-linecap="round" transform="translate(375.1306656047825 127.28371422515465) rotate(0 95.33784369236764 36.97126770019531)"><path d="M18.49 0 C65.77 0, 113.06 0, 172.19 0 M18.49 0 C49.6 0, 80.71 0, 172.19 0 M172.19 0 C184.51 0, 190.68 6.16, 190.68 18.49 M172.19 0 C184.51 0, 190.68 6.16, 190.68 18.49 M190.68 18.49 C190.68 31.36, 190.68 44.24, 190.68 55.46 M190.68 18.49 C190.68 27.06, 190.68 35.63, 190.68 55.46 M190.68 55.46 C190.68 67.78, 184.51 73.94, 172.19 73.94 M190.68 55.46 C190.68 67.78, 184.51 73.94, 172.19 73.94 M172.19 73.94 C130.12 73.94, 88.05 73.94, 18.49 73.94 M172.19 73.94 C137.05 73.94, 101.91 73.94, 18.49 73.94 M18.49 73.94 C6.16 73.94, 0 67.78, 0 55.46 M18.49 73.94 C6.16 73.94, 0 67.78, 0 55.46 M0 55.46 C0 45.68, 0 35.89, 0 18.49 M0 55.46 C0 46.75, 0 38.05, 0 18.49 M0 18.49 C0 6.16, 6.16 0, 18.49 0 M0 18.49 C0 6.16, 6.16 0, 18.49 0" stroke="#1e1e1e" stroke-width="2" fill="none"></path></g><g transform="translate(436.00561867215015 152.75498192534997) rotate(0 34.462890625 11.5)"><text x="34.462890625" y="18.400390625" font-family="Helvetica, Segoe UI Emoji" font-size="20px" fill="#1e1e1e" text-anchor="middle" style="white-space: pre;" direction="ltr" dominant-baseline="alphabetic">Context</text></g><g stroke-linecap="round" transform="translate(810.9035397702936 124.08418986214974) rotate(0 95.33784369236764 36.97126770019531)"><path d="M18.49 0 C68.45 0, 118.41 0, 172.19 0 M18.49 0 C76.18 0, 133.88 0, 172.19 0 M172.19 0 C184.51 0, 190.68 6.16, 190.68 18.49 M172.19 0 C184.51 0, 190.68 6.16, 190.68 18.49 M190.68 18.49 C190.68 32.97, 190.68 47.45, 190.68 55.46 M190.68 18.49 C190.68 30.9, 190.68 43.32, 190.68 55.46 M190.68 55.46 C190.68 67.78, 184.51 73.94, 172.19 73.94 M190.68 55.46 C190.68 67.78, 184.51 73.94, 172.19 73.94 M172.19 73.94 C114.42 73.94, 56.65 73.94, 18.49 73.94 M172.19 73.94 C117.21 73.94, 62.23 73.94, 18.49 73.94 M18.49 73.94 C6.16 73.94, 0 67.78, 0 55.46 M18.49 73.94 C6.16 73.94, 0 67.78, 0 55.46 M0 55.46 C0 42.02, 0 28.58, 0 18.49 M0 55.46 C0 43.48, 0 31.5, 0 18.49 M0 18.49 C0 6.16, 6.16 0, 18.49 0 M0 18.49 C0 6.16, 6.16 0, 18.49 0" stroke="#1e1e1e" stroke-width="2" fill="none"></path></g><g transform="translate(884.7472428376612 149.55545756234505) rotate(0 21.494140625 11.5)"><text x="21.494140625" y="18.400390625" font-family="Helvetica, Segoe UI Emoji" font-size="20px" fill="#1e1e1e" text-anchor="middle" style="white-space: pre;" direction="ltr" dominant-baseline="alphabetic">View</text></g><g stroke-linecap="round" transform="translate(20.387466217619362 125.98632659060513) rotate(0 95.33784369236764 36.97126770019531)"><path d="M18.49 0 C62.72 0, 106.95 0, 172.19 0 M18.49 0 C57.18 0, 95.88 0, 172.19 0 M172.19 0 C184.51 0, 190.68 6.16, 190.68 18.49 M172.19 0 C184.51 0, 190.68 6.16, 190.68 18.49 M190.68 18.49 C190.68 33.27, 190.68 48.05, 190.68 55.46 M190.68 18.49 C190.68 28.6, 190.68 38.71, 190.68 55.46 M190.68 55.46 C190.68 67.78, 184.51 73.94, 172.19 73.94 M190.68 55.46 C190.68 67.78, 184.51 73.94, 172.19 73.94 M172.19 73.94 C127.65 73.94, 83.12 73.94, 18.49 73.94 M172.19 73.94 C132.34 73.94, 92.5 73.94, 18.49 73.94 M18.49 73.94 C6.16 73.94, 0 67.78, 0 55.46 M18.49 73.94 C6.16 73.94, 0 67.78, 0 55.46 M0 55.46 C0 41.07, 0 26.68, 0 18.49 M0 55.46 C0 46.52, 0 37.59, 0 18.49 M0 18.49 C0 6.16, 6.16 0, 18.49 0 M0 18.49 C0 6.16, 6.16 0, 18.49 0" stroke="#1e1e1e" stroke-width="2" fill="none"></path></g><g transform="translate(94.602263034987 151.45759429080044) rotate(0 21.123046875 11.5)"><text x="21.123046875" y="18.400390625" font-family="Helvetica, Segoe UI Emoji" font-size="20px" fill="#1e1e1e" text-anchor="middle" style="white-space: pre;" direction="ltr" dominant-baseline="alphabetic">Data</text></g><g stroke-linecap="round"><g transform="translate(577.8282113714353 165.05041065041064) rotate(0 110.66303557381923 -2.5467258666482167)"><path d="M0 0 C36.89 -0.85, 184.44 -4.24, 221.33 -5.09 M0 0 C36.89 -0.85, 184.44 -4.24, 221.33 -5.09" stroke="#1e1e1e" stroke-width="2" fill="none"></path></g><g transform="translate(577.8282113714353 165.05041065041064) rotate(0 110.66303557381923 -2.5467258666482167)"><path d="M198.04 4 C206.57 0.67, 215.1 -2.67, 221.33 -5.09 M198.04 4 C203.08 2.03, 208.12 0.06, 221.33 -5.09" stroke="#1e1e1e" stroke-width="2" fill="none"></path></g><g transform="translate(577.8282113714353 165.05041065041064) rotate(0 110.66303557381923 -2.5467258666482167)"><path d="M197.64 -13.1 C206.32 -10.17, 215 -7.23, 221.33 -5.09 M197.64 -13.1 C202.77 -11.37, 207.9 -9.63, 221.33 -5.09" stroke="#1e1e1e" stroke-width="2" fill="none"></path></g></g><mask></mask><g stroke-linecap="round"><g transform="translate(221.09178382409596 166.70501718667924) rotate(0 72.84149058456131 -1.4007996969771739)"><path d="M0 0 C24.28 -0.47, 121.4 -2.33, 145.68 -2.8 M0 0 C24.28 -0.47, 121.4 -2.33, 145.68 -2.8" stroke="#1e1e1e" stroke-width="2" fill="none"></path></g><g transform="translate(221.09178382409596 166.70501718667924) rotate(0 72.84149058456131 -1.4007996969771739)"><path d="M122.36 6.2 C127.11 4.37, 131.85 2.53, 145.68 -2.8 M122.36 6.2 C129.5 3.45, 136.63 0.69, 145.68 -2.8" stroke="#1e1e1e" stroke-width="2" fill="none"></path></g><g transform="translate(221.09178382409596 166.70501718667924) rotate(0 72.84149058456131 -1.4007996969771739)"><path d="M122.03 -10.9 C126.85 -9.25, 131.66 -7.6, 145.68 -2.8 M122.03 -10.9 C129.27 -8.42, 136.5 -5.94, 145.68 -2.8" stroke="#1e1e1e" stroke-width="2" fill="none"></path></g></g><mask></mask><g transform="translate(10 70.56971946129829) rotate(0 140.0634765625 23)"><text x="0" y="18.400390625" font-family="Helvetica, Segoe UI Emoji" font-size="20px" fill="#1e1e1e" text-anchor="start" style="white-space: pre;" direction="ltr" dominant-baseline="alphabetic">Connectors to external services</text><text x="0" y="41.400390625" font-family="Helvetica, Segoe UI Emoji" font-size="20px" fill="#1e1e1e" text-anchor="start" style="white-space: pre;" direction="ltr" dominant-baseline="alphabetic">(API in our case)</text></g><g transform="translate(334.0694895220148 47.98495001677247) rotate(0 161.748046875 34.5)"><text x="0" y="18.400390625" font-family="Helvetica, Segoe UI Emoji" font-size="20px" fill="#1e1e1e" text-anchor="start" style="white-space: pre;" direction="ltr" dominant-baseline="alphabetic">All the information about the client </text><text x="0" y="41.400390625" font-family="Helvetica, Segoe UI Emoji" font-size="20px" fill="#1e1e1e" text-anchor="start" style="white-space: pre;" direction="ltr" dominant-baseline="alphabetic">will be passed to reactive properties,</text><text x="0" y="64.400390625" font-family="Helvetica, Segoe UI Emoji" font-size="20px" fill="#1e1e1e" text-anchor="start" style="white-space: pre;" direction="ltr" dominant-baseline="alphabetic">to be attached to the UI components</text></g><g stroke-linecap="round" transform="translate(729.860276581784 289.49609681569996) rotate(0 30.248524631201803 30.248524631201803)"><path d="M15.12 0 C24.37 0, 33.62 0, 45.37 0 M15.12 0 C26.44 0, 37.76 0, 45.37 0 M45.37 0 C55.46 0, 60.5 5.04, 60.5 15.12 M45.37 0 C55.46 0, 60.5 5.04, 60.5 15.12 M60.5 15.12 C60.5 25.04, 60.5 34.96, 60.5 45.37 M60.5 15.12 C60.5 23.86, 60.5 32.6, 60.5 45.37 M60.5 45.37 C60.5 55.46, 55.46 60.5, 45.37 60.5 M60.5 45.37 C60.5 55.46, 55.46 60.5, 45.37 60.5 M45.37 60.5 C39.1 60.5, 32.83 60.5, 15.12 60.5 M45.37 60.5 C33.51 60.5, 21.64 60.5, 15.12 60.5 M15.12 60.5 C5.04 60.5, 0 55.46, 0 45.37 M15.12 60.5 C5.04 60.5, 0 55.46, 0 45.37 M0 45.37 C0 38.95, 0 32.52, 0 15.12 M0 45.37 C0 39.13, 0 32.9, 0 15.12 M0 15.12 C0 5.04, 5.04 0, 15.12 0 M0 15.12 C0 5.04, 5.04 0, 15.12 0" stroke="#1e1e1e" stroke-width="2" fill="none"></path></g><g transform="translate(737.8627074629858 296.74462144690165) rotate(0 22.24609375 23)"><text x="22.24609375" y="18.400390625" font-family="Helvetica, Segoe UI Emoji" font-size="20px" fill="#1e1e1e" text-anchor="middle" style="white-space: pre;" direction="ltr" dominant-baseline="alphabetic">page</text><text x="22.24609375" y="41.400390625" font-family="Helvetica, Segoe UI Emoji" font-size="20px" fill="#1e1e1e" text-anchor="middle" style="white-space: pre;" direction="ltr" dominant-baseline="alphabetic">1</text></g><g stroke-linecap="round" transform="translate(878.8991402786006 290.6854784802888) rotate(0 30.248524631201803 30.248524631201803)"><path d="M15.12 0 C25.19 0, 35.25 0, 45.37 0 M15.12 0 C21.63 0, 28.13 0, 45.37 0 M45.37 0 C55.46 0, 60.5 5.04, 60.5 15.12 M45.37 0 C55.46 0, 60.5 5.04, 60.5 15.12 M60.5 15.12 C60.5 22.1, 60.5 29.07, 60.5 45.37 M60.5 15.12 C60.5 26.42, 60.5 37.72, 60.5 45.37 M60.5 45.37 C60.5 55.46, 55.46 60.5, 45.37 60.5 M60.5 45.37 C60.5 55.46, 55.46 60.5, 45.37 60.5 M45.37 60.5 C37.21 60.5, 29.05 60.5, 15.12 60.5 M45.37 60.5 C37.36 60.5, 29.36 60.5, 15.12 60.5 M15.12 60.5 C5.04 60.5, 0 55.46, 0 45.37 M15.12 60.5 C5.04 60.5, 0 55.46, 0 45.37 M0 45.37 C0 39.06, 0 32.74, 0 15.12 M0 45.37 C0 35.79, 0 26.21, 0 15.12 M0 15.12 C0 5.04, 5.04 0, 15.12 0 M0 15.12 C0 5.04, 5.04 0, 15.12 0" stroke="#1e1e1e" stroke-width="2" fill="none"></path></g><g transform="translate(886.9015711598024 297.9340031114905) rotate(0 22.24609375 23)"><text x="22.24609375" y="18.400390625" font-family="Helvetica, Segoe UI Emoji" font-size="20px" fill="#1e1e1e" text-anchor="middle" style="white-space: pre;" direction="ltr" dominant-baseline="alphabetic">page</text><text x="22.24609375" y="41.400390625" font-family="Helvetica, Segoe UI Emoji" font-size="20px" fill="#1e1e1e" text-anchor="middle" style="white-space: pre;" direction="ltr" dominant-baseline="alphabetic">2</text></g><g stroke-linecap="round" transform="translate(1058.8071634940343 298.4240434331589) rotate(0 38.28328157998487 30.248524631201803)"><path d="M15.12 0 C29.08 0, 43.03 0, 61.44 0 M15.12 0 C33.36 0, 51.6 0, 61.44 0 M61.44 0 C71.53 0, 76.57 5.04, 76.57 15.12 M61.44 0 C71.53 0, 76.57 5.04, 76.57 15.12 M76.57 15.12 C76.57 21.51, 76.57 27.89, 76.57 45.37 M76.57 15.12 C76.57 24.62, 76.57 34.12, 76.57 45.37 M76.57 45.37 C76.57 55.46, 71.53 60.5, 61.44 60.5 M76.57 45.37 C76.57 55.46, 71.53 60.5, 61.44 60.5 M61.44 60.5 C46.29 60.5, 31.13 60.5, 15.12 60.5 M61.44 60.5 C46.78 60.5, 32.11 60.5, 15.12 60.5 M15.12 60.5 C5.04 60.5, 0 55.46, 0 45.37 M15.12 60.5 C5.04 60.5, 0 55.46, 0 45.37 M0 45.37 C0 38.17, 0 30.97, 0 15.12 M0 45.37 C0 34.94, 0 24.52, 0 15.12 M0 15.12 C0 5.04, 5.04 0, 15.12 0 M0 15.12 C0 5.04, 5.04 0, 15.12 0" stroke="#1e1e1e" stroke-width="2" fill="none"></path></g><g transform="translate(1066.514273199019 317.1725680643606) rotate(0 30.576171875 11.5)"><text x="30.576171875" y="18.400390625" font-family="Helvetica, Segoe UI Emoji" font-size="20px" fill="#1e1e1e" text-anchor="middle" style="white-space: pre;" direction="ltr" dominant-baseline="alphabetic">shared</text></g><g stroke-linecap="round" transform="translate(641.9776497110913 409.3849238017958) rotate(0 78.4570979244545 17.5)"><path d="M8.75 0 C39.44 0, 70.14 0, 148.16 0 M8.75 0 C60.52 0, 112.29 0, 148.16 0 M148.16 0 C154 0, 156.91 2.92, 156.91 8.75 M148.16 0 C154 0, 156.91 2.92, 156.91 8.75 M156.91 8.75 C156.91 15.01, 156.91 21.26, 156.91 26.25 M156.91 8.75 C156.91 13.13, 156.91 17.5, 156.91 26.25 M156.91 26.25 C156.91 32.08, 154 35, 148.16 35 M156.91 26.25 C156.91 32.08, 154 35, 148.16 35 M148.16 35 C96.76 35, 45.36 35, 8.75 35 M148.16 35 C93.22 35, 38.28 35, 8.75 35 M8.75 35 C2.92 35, 0 32.08, 0 26.25 M8.75 35 C2.92 35, 0 32.08, 0 26.25 M0 26.25 C0 20.78, 0 15.31, 0 8.75 M0 26.25 C0 19.75, 0 13.25, 0 8.75 M0 8.75 C0 2.92, 2.92 0, 8.75 0 M0 8.75 C0 2.92, 2.92 0, 8.75 0" stroke="#1e1e1e" stroke-width="2" fill="none"></path></g><g transform="translate(662.6173648230458 415.3849238017958) rotate(0 57.8173828125 11.5)"><text x="57.8173828125" y="18.400390625" font-family="Helvetica, Segoe UI Emoji" font-size="20px" fill="#1e1e1e" text-anchor="middle" style="white-space: pre;" direction="ltr" dominant-baseline="alphabetic">component 1</text></g><g stroke-linecap="round" transform="translate(844.94329331706 470.1390758802015) rotate(0 78.4570979244545 17.040590659134068)"><path d="M8.52 0 C57.25 0, 105.97 0, 148.39 0 M8.52 0 C40.95 0, 73.38 0, 148.39 0 M148.39 0 C154.07 0, 156.91 2.84, 156.91 8.52 M148.39 0 C154.07 0, 156.91 2.84, 156.91 8.52 M156.91 8.52 C156.91 13.18, 156.91 17.85, 156.91 25.56 M156.91 8.52 C156.91 12.42, 156.91 16.31, 156.91 25.56 M156.91 25.56 C156.91 31.24, 154.07 34.08, 148.39 34.08 M156.91 25.56 C156.91 31.24, 154.07 34.08, 148.39 34.08 M148.39 34.08 C111.39 34.08, 74.38 34.08, 8.52 34.08 M148.39 34.08 C115.46 34.08, 82.54 34.08, 8.52 34.08 M8.52 34.08 C2.84 34.08, 0 31.24, 0 25.56 M8.52 34.08 C2.84 34.08, 0 31.24, 0 25.56 M0 25.56 C0 18.9, 0 12.23, 0 8.52 M0 25.56 C0 21.23, 0 16.9, 0 8.52 M0 8.52 C0 2.84, 2.84 0, 8.52 0 M0 8.52 C0 2.84, 2.84 0, 8.52 0" stroke="#1e1e1e" stroke-width="2" fill="none"></path></g><g transform="translate(865.5830084290145 475.6796665393356) rotate(0 57.8173828125 11.5)"><text x="57.8173828125" y="18.400390625" font-family="Helvetica, Segoe UI Emoji" font-size="20px" fill="#1e1e1e" text-anchor="middle" style="white-space: pre;" direction="ltr" dominant-baseline="alphabetic">component 2</text></g><g stroke-linecap="round" transform="translate(1092.2872872151847 423.39413195562247) rotate(0 78.4570979244545 17.5)"><path d="M8.75 0 C63.35 0, 117.96 0, 148.16 0 M8.75 0 C55.57 0, 102.39 0, 148.16 0 M148.16 0 C154 0, 156.91 2.92, 156.91 8.75 M148.16 0 C154 0, 156.91 2.92, 156.91 8.75 M156.91 8.75 C156.91 15.33, 156.91 21.9, 156.91 26.25 M156.91 8.75 C156.91 15.01, 156.91 21.27, 156.91 26.25 M156.91 26.25 C156.91 32.08, 154 35, 148.16 35 M156.91 26.25 C156.91 32.08, 154 35, 148.16 35 M148.16 35 C97.49 35, 46.82 35, 8.75 35 M148.16 35 C102.99 35, 57.82 35, 8.75 35 M8.75 35 C2.92 35, 0 32.08, 0 26.25 M8.75 35 C2.92 35, 0 32.08, 0 26.25 M0 26.25 C0 21.41, 0 16.57, 0 8.75 M0 26.25 C0 19.6, 0 12.94, 0 8.75 M0 8.75 C0 2.92, 2.92 0, 8.75 0 M0 8.75 C0 2.92, 2.92 0, 8.75 0" stroke="#1e1e1e" stroke-width="2" fill="none"></path></g><g transform="translate(1112.9270023271392 429.39413195562247) rotate(0 57.8173828125 11.5)"><text x="57.8173828125" y="18.400390625" font-family="Helvetica, Segoe UI Emoji" font-size="20px" fill="#1e1e1e" text-anchor="middle" style="white-space: pre;" direction="ltr" dominant-baseline="alphabetic">component 3</text></g><g stroke-linecap="round"><g transform="translate(1119.224984876892 368.89836732073377) rotate(0 23.675821908252715 21.268500300176242)"><path d="M0 0 C7.89 7.09, 39.46 35.45, 47.35 42.54 M0 0 C7.89 7.09, 39.46 35.45, 47.35 42.54" stroke="#1e1e1e" stroke-width="2" fill="none"></path></g><g transform="translate(1119.224984876892 368.89836732073377) rotate(0 23.675821908252715 21.268500300176242)"><path d="M24.16 33.2 C33.43 36.93, 42.7 40.67, 47.35 42.54 M24.16 33.2 C30.5 35.75, 36.85 38.31, 47.35 42.54" stroke="#1e1e1e" stroke-width="2" fill="none"></path></g><g transform="translate(1119.224984876892 368.89836732073377) rotate(0 23.675821908252715 21.268500300176242)"><path d="M35.59 20.48 C40.29 29.3, 44.99 38.12, 47.35 42.54 M35.59 20.48 C38.81 26.51, 42.02 32.54, 47.35 42.54" stroke="#1e1e1e" stroke-width="2" fill="none"></path></g></g><mask></mask><g stroke-linecap="round"><g transform="translate(909.6940122565818 362.28146404448216) rotate(0 1.507613476174015 50.11677952117384)"><path d="M0 0 C0.5 16.71, 2.51 83.53, 3.02 100.23 M0 0 C0.5 16.71, 2.51 83.53, 3.02 100.23" stroke="#1e1e1e" stroke-width="2" fill="none"></path></g><g transform="translate(909.6940122565818 362.28146404448216) rotate(0 1.507613476174015 50.11677952117384)"><path d="M-6.24 77.01 C-2.88 85.44, 0.48 93.88, 3.02 100.23 M-6.24 77.01 C-3.3 84.39, -0.36 91.77, 3.02 100.23" stroke="#1e1e1e" stroke-width="2" fill="none"></path></g><g transform="translate(909.6940122565818 362.28146404448216) rotate(0 1.507613476174015 50.11677952117384)"><path d="M10.86 76.49 C8.01 85.12, 5.16 93.74, 3.02 100.23 M10.86 76.49 C8.36 84.04, 5.87 91.58, 3.02 100.23" stroke="#1e1e1e" stroke-width="2" fill="none"></path></g></g><mask></mask><g stroke-linecap="round"><g transform="translate(757.069769202679 360.3910556822152) rotate(0 -8.533391441185074 19.377902334582814)"><path d="M0 0 C-2.84 6.46, -14.22 32.3, -17.07 38.76 M0 0 C-2.84 6.46, -14.22 32.3, -17.07 38.76" stroke="#1e1e1e" stroke-width="2" fill="none"></path></g><g transform="translate(757.069769202679 360.3910556822152) rotate(0 -8.533391441185074 19.377902334582814)"><path d="M-15.68 17.63 C-16.11 24.17, -16.54 30.72, -17.07 38.76 M-15.68 17.63 C-16.2 25.6, -16.73 33.57, -17.07 38.76" stroke="#1e1e1e" stroke-width="2" fill="none"></path></g><g transform="translate(757.069769202679 360.3910556822152) rotate(0 -8.533391441185074 19.377902334582814)"><path d="M-2.42 23.47 C-6.96 28.2, -11.5 32.94, -17.07 38.76 M-2.42 23.47 C-7.95 29.24, -13.48 35.01, -17.07 38.76" stroke="#1e1e1e" stroke-width="2" fill="none"></path></g></g><mask></mask><g stroke-linecap="round"><g transform="translate(894.4245874319397 204.42215881610286) rotate(0 -53.40752809530861 37.3379983974653)"><path d="M0 0 C-17.8 12.45, -89.01 62.23, -106.82 74.68 M0 0 C-17.8 12.45, -89.01 62.23, -106.82 74.68" stroke="#1e1e1e" stroke-width="2" fill="none"></path></g><g transform="translate(894.4245874319397 204.42215881610286) rotate(0 -53.40752809530861 37.3379983974653)"><path d="M-92.46 54.21 C-96.8 60.39, -101.14 66.58, -106.82 74.68 M-92.46 54.21 C-96.05 59.33, -99.64 64.44, -106.82 74.68" stroke="#1e1e1e" stroke-width="2" fill="none"></path></g><g transform="translate(894.4245874319397 204.42215881610286) rotate(0 -53.40752809530861 37.3379983974653)"><path d="M-82.66 68.22 C-89.96 70.17, -97.26 72.12, -106.82 74.68 M-82.66 68.22 C-88.7 69.84, -94.74 71.45, -106.82 74.68" stroke="#1e1e1e" stroke-width="2" fill="none"></path></g></g><mask></mask><g stroke-linecap="round"><g transform="translate(907.6582675822243 203.4768914338606) rotate(0 0.4726178908440488 38.283265779707676)"><path d="M0 0 C0.16 12.76, 0.79 63.81, 0.95 76.57 M0 0 C0.16 12.76, 0.79 63.81, 0.95 76.57" stroke="#1e1e1e" stroke-width="2" fill="none"></path></g><g transform="translate(907.6582675822243 203.4768914338606) rotate(0 0.4726178908440488 38.283265779707676)"><path d="M-7.89 53.18 C-4.94 61, -1.99 68.81, 0.95 76.57 M-7.89 53.18 C-4.57 61.96, -1.26 70.75, 0.95 76.57" stroke="#1e1e1e" stroke-width="2" fill="none"></path></g><g transform="translate(907.6582675822243 203.4768914338606) rotate(0 0.4726178908440488 38.283265779707676)"><path d="M9.21 52.97 C6.44 60.86, 3.68 68.74, 0.95 76.57 M9.21 52.97 C6.1 61.83, 3 70.69, 0.95 76.57" stroke="#1e1e1e" stroke-width="2" fill="none"></path></g></g><mask></mask><g stroke-linecap="round"><g transform="translate(923.7277814797905 206.31269358058785) rotate(0 73.25811152184406 41.11906792643481)"><path d="M0 0 C24.42 13.71, 122.1 68.53, 146.52 82.24 M0 0 C24.42 13.71, 122.1 68.53, 146.52 82.24" stroke="#1e1e1e" stroke-width="2" fill="none"></path></g><g transform="translate(923.7277814797905 206.31269358058785) rotate(0 73.25811152184406 41.11906792643481)"><path d="M121.85 78.2 C129.94 79.52, 138.03 80.85, 146.52 82.24 M121.85 78.2 C128.97 79.36, 136.1 80.53, 146.52 82.24" stroke="#1e1e1e" stroke-width="2" fill="none"></path></g><g transform="translate(923.7277814797905 206.31269358058785) rotate(0 73.25811152184406 41.11906792643481)"><path d="M130.22 63.28 C135.56 69.5, 140.91 75.72, 146.52 82.24 M130.22 63.28 C134.92 68.76, 139.63 74.23, 146.52 82.24" stroke="#1e1e1e" stroke-width="2" fill="none"></path></g></g><mask></mask><g stroke-linecap="round"><g transform="translate(922.1906684458936 364.17206201007616) rotate(0 83.00672397037243 33.21029822532)"><path d="M0 0 C27.67 11.07, 138.34 55.35, 166.01 66.42 M0 0 C27.67 11.07, 138.34 55.35, 166.01 66.42" stroke="#1e1e1e" stroke-width="2" fill="none"></path></g></g><mask></mask><g stroke-linecap="round"><g transform="translate(777.4075068948606 362.28159044669997) rotate(0 153.03508888945146 38.49746997341117)"><path d="M0 0 C51.01 12.83, 255.06 64.16, 306.07 76.99 M0 0 C51.01 12.83, 255.06 64.16, 306.07 76.99" stroke="#1e1e1e" stroke-width="2" fill="none"></path></g></g><mask></mask><g transform="translate(791.7134853297687 41.38429465986451) rotate(0 155.09765625 23)"><text x="0" y="18.400390625" font-family="Helvetica, Segoe UI Emoji" font-size="20px" fill="#1e1e1e" text-anchor="start" style="white-space: pre;" direction="ltr" dominant-baseline="alphabetic">UI components, attached to pages,</text><text x="0" y="41.400390625" font-family="Helvetica, Segoe UI Emoji" font-size="20px" fill="#1e1e1e" text-anchor="start" style="white-space: pre;" direction="ltr" dominant-baseline="alphabetic">which are attached to routing.</text></g><g stroke-linecap="round" transform="translate(632.9222330313876 460.09013929215894) rotate(0 78.4570979244545 30)"><path d="M15 0 C49.74 0, 84.47 0, 141.91 0 M15 0 C44.01 0, 73.03 0, 141.91 0 M141.91 0 C151.91 0, 156.91 5, 156.91 15 M141.91 0 C151.91 0, 156.91 5, 156.91 15 M156.91 15 C156.91 22.94, 156.91 30.87, 156.91 45 M156.91 15 C156.91 22.06, 156.91 29.13, 156.91 45 M156.91 45 C156.91 55, 151.91 60, 141.91 60 M156.91 45 C156.91 55, 151.91 60, 141.91 60 M141.91 60 C92.29 60, 42.66 60, 15 60 M141.91 60 C109.65 60, 77.38 60, 15 60 M15 60 C5 60, 0 55, 0 45 M15 60 C5 60, 0 55, 0 45 M0 45 C0 35.16, 0 25.32, 0 15 M0 45 C0 36.58, 0 28.16, 0 15 M0 15 C0 5, 5 0, 15 0 M0 15 C0 5, 5 0, 15 0" stroke="#1e1e1e" stroke-width="2" fill="none"></path></g><g transform="translate(653.5619481433421 467.09013929215894) rotate(0 57.8173828125 23)"><text x="57.8173828125" y="18.400390625" font-family="Helvetica, Segoe UI Emoji" font-size="20px" fill="#1e1e1e" text-anchor="middle" style="white-space: pre;" direction="ltr" dominant-baseline="alphabetic">component 1</text><text x="57.8173828125" y="41.400390625" font-family="Helvetica, Segoe UI Emoji" font-size="20px" fill="#1e1e1e" text-anchor="middle" style="white-space: pre;" direction="ltr" dominant-baseline="alphabetic">CSS</text></g><g stroke-linecap="round" transform="translate(1096.6071985096992 474.7535729251167) rotate(0 78.4570979244545 30)"><path d="M15 0 C62.7 0, 110.4 0, 141.91 0 M15 0 C60.4 0, 105.79 0, 141.91 0 M141.91 0 C151.91 0, 156.91 5, 156.91 15 M141.91 0 C151.91 0, 156.91 5, 156.91 15 M156.91 15 C156.91 25.9, 156.91 36.81, 156.91 45 M156.91 15 C156.91 24.72, 156.91 34.44, 156.91 45 M156.91 45 C156.91 55, 151.91 60, 141.91 60 M156.91 45 C156.91 55, 151.91 60, 141.91 60 M141.91 60 C106.83 60, 71.74 60, 15 60 M141.91 60 C93.66 60, 45.41 60, 15 60 M15 60 C5 60, 0 55, 0 45 M15 60 C5 60, 0 55, 0 45 M0 45 C0 36.35, 0 27.7, 0 15 M0 45 C0 36.95, 0 28.89, 0 15 M0 15 C0 5, 5 0, 15 0 M0 15 C0 5, 5 0, 15 0" stroke="#1e1e1e" stroke-width="2" fill="none"></path></g><g transform="translate(1117.2469136216537 481.7535729251167) rotate(0 57.8173828125 23)"><text x="57.8173828125" y="18.400390625" font-family="Helvetica, Segoe UI Emoji" font-size="20px" fill="#1e1e1e" text-anchor="middle" style="white-space: pre;" direction="ltr" dominant-baseline="alphabetic">component 3</text><text x="57.8173828125" y="41.400390625" font-family="Helvetica, Segoe UI Emoji" font-size="20px" fill="#1e1e1e" text-anchor="middle" style="white-space: pre;" direction="ltr" dominant-baseline="alphabetic">CSS</text></g><g stroke-linecap="round" transform="translate(53.93410431494874 357.0657842936455) rotate(0 83.18340323511202 45.372771146525565)"><path d="M22.69 0 C60.08 0, 97.47 0, 143.68 0 M22.69 0 C46.96 0, 71.23 0, 143.68 0 M143.68 0 C158.8 0, 166.37 7.56, 166.37 22.69 M143.68 0 C158.8 0, 166.37 7.56, 166.37 22.69 M166.37 22.69 C166.37 40.75, 166.37 58.81, 166.37 68.06 M166.37 22.69 C166.37 33.67, 166.37 44.65, 166.37 68.06 M166.37 68.06 C166.37 83.18, 158.8 90.75, 143.68 90.75 M166.37 68.06 C166.37 83.18, 158.8 90.75, 143.68 90.75 M143.68 90.75 C115.41 90.75, 87.14 90.75, 22.69 90.75 M143.68 90.75 C106.47 90.75, 69.27 90.75, 22.69 90.75 M22.69 90.75 C7.56 90.75, 0 83.18, 0 68.06 M22.69 90.75 C7.56 90.75, 0 83.18, 0 68.06 M0 68.06 C0 53.94, 0 39.82, 0 22.69 M0 68.06 C0 50.19, 0 32.31, 0 22.69 M0 22.69 C0 7.56, 7.56 0, 22.69 0 M0 22.69 C0 7.56, 7.56 0, 22.69 0" stroke="#1e1e1e" stroke-width="2" fill="none"></path></g><g transform="translate(87.11262473756074 390.93855544017106) rotate(0 50.0048828125 11.5)"><text x="50.0048828125" y="18.400390625" font-family="Helvetica, Segoe UI Emoji" font-size="20px" fill="#1e1e1e" text-anchor="middle" style="white-space: pre;" direction="ltr" dominant-baseline="alphabetic">Framework</text></g><g stroke-linecap="round"><g transform="translate(437.4522051575533 215.2758665606143) rotate(0 -137.21754865851454 64.27808719081884)"><path d="M0 0 C-45.74 21.43, -228.7 107.13, -274.44 128.56 M0 0 C-45.74 21.43, -228.7 107.13, -274.44 128.56" stroke="#1e1e1e" stroke-width="2" fill="none"></path></g></g><mask></mask><g stroke-linecap="round"><g transform="translate(812.0374072533809 195.42528313407865) rotate(0 -317.4609917883264 76.56654735969266)"><path d="M0 0 C-105.82 25.52, -529.1 127.61, -634.92 153.13 M0 0 C-105.82 25.52, -529.1 127.61, -634.92 153.13" stroke="#1e1e1e" stroke-width="2" fill="none"></path></g></g><mask></mask><g transform="translate(56.48711310080637 459.1711254646382) rotate(0 136.7236328125 23)"><text x="0" y="18.400390625" font-family="Helvetica, Segoe UI Emoji" font-size="20px" fill="#1e1e1e" text-anchor="start" style="white-space: pre;" direction="ltr" dominant-baseline="alphabetic">Implements reactive properties</text><text x="0" y="41.400390625" font-family="Helvetica, Segoe UI Emoji" font-size="20px" fill="#1e1e1e" text-anchor="start" style="white-space: pre;" direction="ltr" dominant-baseline="alphabetic">and components functionality.</text></g><g transform="translate(374.0004448738463 10) rotate(0 112.8369140625 11.5)"><text x="0" y="18.400390625" font-family="Helvetica, Segoe UI Emoji" font-size="20px" fill="#e03131" text-anchor="start" style="white-space: pre;" direction="ltr" dominant-baseline="alphabetic">UI relacted logic mapping</text></g><g stroke-linecap="round" transform="translate(845.3081333147912 516.4290766589279) rotate(0 78.4570979244545 30)"><path d="M15 0 C51.2 0, 87.41 0, 141.91 0 M15 0 C57.09 0, 99.18 0, 141.91 0 M141.91 0 C151.91 0, 156.91 5, 156.91 15 M141.91 0 C151.91 0, 156.91 5, 156.91 15 M156.91 15 C156.91 23.81, 156.91 32.62, 156.91 45 M156.91 15 C156.91 26.72, 156.91 38.45, 156.91 45 M156.91 45 C156.91 55, 151.91 60, 141.91 60 M156.91 45 C156.91 55, 151.91 60, 141.91 60 M141.91 60 C93.48 60, 45.05 60, 15 60 M141.91 60 C112.13 60, 82.34 60, 15 60 M15 60 C5 60, 0 55, 0 45 M15 60 C5 60, 0 55, 0 45 M0 45 C0 33.96, 0 22.93, 0 15 M0 45 C0 34.08, 0 23.16, 0 15 M0 15 C0 5, 5 0, 15 0 M0 15 C0 5, 5 0, 15 0" stroke="#1e1e1e" stroke-width="2" fill="none"></path></g><g transform="translate(865.9478484267457 523.4290766589279) rotate(0 57.8173828125 23)"><text x="57.8173828125" y="18.400390625" font-family="Helvetica, Segoe UI Emoji" font-size="20px" fill="#1e1e1e" text-anchor="middle" style="white-space: pre;" direction="ltr" dominant-baseline="alphabetic">component 2</text><text x="57.8173828125" y="41.400390625" font-family="Helvetica, Segoe UI Emoji" font-size="20px" fill="#1e1e1e" text-anchor="middle" style="white-space: pre;" direction="ltr" dominant-baseline="alphabetic">CSS</text></g></svg>